<svg xmlns="http://www.w3.org/2000/svg" xmlns:xlink="http://www.w3.org/1999/xlink" width="300" zoomAndPan="magnify" viewBox="0 0 224.87999 172.499995" height="230" preserveAspectRatio="xMidYMid meet" version="1.0"><defs><g/><clipPath id="9db792fd74"><path d="M 203.023438 92.5 L 214.425781 92.5 L 214.425781 103.902344 L 203.023438 103.902344 Z M 203.023438 92.5 " clip-rule="nonzero"/></clipPath><clipPath id="81dc312c84"><path d="M 208.722656 92.5 C 205.574219 92.5 203.023438 95.050781 203.023438 98.199219 C 203.023438 101.347656 205.574219 103.902344 208.722656 103.902344 C 211.871094 103.902344 214.425781 101.347656 214.425781 98.199219 C 214.425781 95.050781 211.871094 92.5 208.722656 92.5 Z M 208.722656 92.5 " clip-rule="nonzero"/></clipPath></defs><g fill="#292929" fill-opacity="1"><g transform="translate(25.433863, 103.034788)"><g><path d="M 29.84375 -24.265625 L 33.421875 -24.265625 L 33.421875 0 L 0.234375 0 L 0 -2.015625 L 3.8125 -2.015625 C 3.96875 -2.015625 4.101562 -2.035156 4.21875 -2.078125 C 4.34375 -2.117188 4.441406 -2.140625 4.515625 -2.140625 C 5.148438 -2.378906 5.585938 -2.695312 5.828125 -3.09375 C 5.828125 -3.25 5.847656 -3.382812 5.890625 -3.5 C 5.929688 -3.625 5.953125 -3.726562 5.953125 -3.8125 L 5.703125 -89.421875 L 1.671875 -89.421875 L 1.671875 -91.8125 L 20.8125 -91.8125 L 20.8125 -89.421875 L 16.40625 -89.421875 L 16.40625 -60.296875 C 16.40625 -56.484375 16.40625 -52.875 16.40625 -49.46875 C 16.40625 -46.0625 16.40625 -42.851562 16.40625 -39.84375 C 16.332031 -36.988281 16.296875 -34.289062 16.296875 -31.75 C 16.296875 -29.21875 16.296875 -26.878906 16.296875 -24.734375 L 16.296875 -2.265625 C 16.609375 -2.265625 16.882812 -2.265625 17.125 -2.265625 C 17.363281 -2.265625 17.640625 -2.300781 17.953125 -2.375 C 18.273438 -2.375 18.613281 -2.394531 18.96875 -2.4375 C 19.320312 -2.476562 19.660156 -2.5 19.984375 -2.5 C 20.378906 -2.570312 20.734375 -2.628906 21.046875 -2.671875 C 21.367188 -2.710938 21.644531 -2.773438 21.875 -2.859375 C 23.46875 -3.328125 24.816406 -4.273438 25.921875 -5.703125 C 27.671875 -8.242188 28.679688 -11.175781 28.953125 -14.5 C 29.234375 -17.832031 29.53125 -20.96875 29.84375 -23.90625 Z M 29.84375 -24.265625 "/></g></g></g><g fill="#292929" fill-opacity="1"><g transform="translate(61.343445, 103.034788)"><g><path d="M 33.296875 -45.90625 C 33.847656 -44.875 34.125 -43.882812 34.125 -42.9375 L 34.125 -12.71875 C 33.894531 -11.289062 33.539062 -9.984375 33.0625 -8.796875 C 32.664062 -7.765625 31.988281 -6.578125 31.03125 -5.234375 C 30.082031 -4.046875 28.773438 -2.972656 27.109375 -2.015625 C 24.492188 -0.515625 21.441406 0.234375 17.953125 0.234375 L 17.25 0.234375 C 15.976562 0.234375 14.785156 0.15625 13.671875 0 C 12.566406 -0.15625 11.535156 -0.394531 10.578125 -0.71875 C 9.710938 -1.03125 8.898438 -1.382812 8.140625 -1.78125 C 7.390625 -2.175781 6.695312 -2.570312 6.0625 -2.96875 C 4.789062 -3.925781 3.800781 -4.921875 3.09375 -5.953125 C 2.769531 -6.421875 2.46875 -6.910156 2.1875 -7.421875 C 1.914062 -7.941406 1.703125 -8.441406 1.546875 -8.921875 C 0.910156 -10.421875 0.59375 -11.410156 0.59375 -11.890625 L 0.59375 -42.09375 C 0.832031 -43.445312 1.191406 -44.753906 1.671875 -46.015625 C 2.222656 -47.210938 2.9375 -48.363281 3.8125 -49.46875 C 4.28125 -50.101562 4.851562 -50.695312 5.53125 -51.25 C 6.207031 -51.8125 6.941406 -52.289062 7.734375 -52.6875 C 10.265625 -54.269531 13.351562 -55.0625 17 -55.0625 L 17.59375 -55.0625 C 20.050781 -55.0625 22.234375 -54.742188 24.140625 -54.109375 C 25.015625 -53.867188 25.847656 -53.550781 26.640625 -53.15625 C 27.429688 -52.757812 28.144531 -52.363281 28.78125 -51.96875 C 29.414062 -51.488281 29.96875 -51.007812 30.4375 -50.53125 C 30.914062 -50.0625 31.316406 -49.550781 31.640625 -49 C 32.429688 -47.8125 32.984375 -46.78125 33.296875 -45.90625 Z M 10.578125 -47.09375 C 10.578125 -46.0625 10.578125 -45.03125 10.578125 -44 C 10.578125 -42.96875 10.578125 -41.9375 10.578125 -40.90625 C 10.578125 -38.445312 10.578125 -35.988281 10.578125 -33.53125 C 10.578125 -31.070312 10.578125 -28.613281 10.578125 -26.15625 C 10.578125 -23.78125 10.578125 -21.421875 10.578125 -19.078125 C 10.578125 -16.742188 10.578125 -14.390625 10.578125 -12.015625 C 10.578125 -11.378906 10.578125 -10.722656 10.578125 -10.046875 C 10.578125 -9.367188 10.578125 -8.71875 10.578125 -8.09375 C 10.742188 -6.425781 11.441406 -4.976562 12.671875 -3.75 C 13.898438 -2.519531 15.34375 -1.90625 17 -1.90625 C 17.320312 -1.90625 17.679688 -1.921875 18.078125 -1.953125 C 18.472656 -1.992188 18.910156 -2.054688 19.390625 -2.140625 C 20.335938 -2.222656 21.328125 -2.660156 22.359375 -3.453125 C 22.992188 -4.003906 23.507812 -4.71875 23.90625 -5.59375 C 24.21875 -6.382812 24.351562 -7.210938 24.3125 -8.078125 C 24.28125 -8.953125 24.265625 -9.785156 24.265625 -10.578125 C 24.335938 -11.453125 24.375 -12.328125 24.375 -13.203125 C 24.375 -14.078125 24.375 -14.945312 24.375 -15.8125 C 24.375 -17.394531 24.375 -18.976562 24.375 -20.5625 C 24.375 -22.15625 24.375 -23.707031 24.375 -25.21875 C 24.375 -26.875 24.375 -28.554688 24.375 -30.265625 C 24.375 -31.972656 24.375 -33.65625 24.375 -35.3125 C 24.375 -36.664062 24.375 -38.015625 24.375 -39.359375 C 24.375 -40.710938 24.375 -42.0625 24.375 -43.40625 C 24.375 -44.039062 24.375 -44.675781 24.375 -45.3125 C 24.375 -45.945312 24.335938 -46.539062 24.265625 -47.09375 C 24.179688 -47.488281 24.078125 -47.84375 23.953125 -48.15625 C 23.835938 -48.476562 23.703125 -48.796875 23.546875 -49.109375 C 23.304688 -49.898438 22.789062 -50.613281 22 -51.25 C 21.125 -52.039062 20.332031 -52.476562 19.625 -52.5625 C 18.90625 -52.800781 18.269531 -52.921875 17.71875 -52.921875 C 17.476562 -52.921875 17.160156 -52.898438 16.765625 -52.859375 C 16.367188 -52.816406 15.894531 -52.757812 15.34375 -52.6875 C 14.863281 -52.601562 14.382812 -52.460938 13.90625 -52.265625 C 13.4375 -52.066406 13.003906 -51.769531 12.609375 -51.375 C 11.734375 -50.5 11.140625 -49.390625 10.828125 -48.046875 C 10.660156 -47.566406 10.578125 -47.25 10.578125 -47.09375 Z M 10.578125 -47.09375 "/></g></g></g><g fill="#292929" fill-opacity="1"><g transform="translate(97.609744, 103.034788)"><g><path d="M 38.53125 -2.609375 C 43.050781 0.710938 46.5 4.734375 48.875 9.453125 C 51.25 14.171875 52.59375 19.1875 52.90625 24.5 C 53.226562 29.8125 52.5625 35.082031 50.90625 40.3125 C 48.84375 46.8125 45.289062 52.28125 40.25 56.71875 C 35.21875 61.164062 29.289062 63.863281 22.46875 64.8125 C 18.425781 65.363281 14.460938 65.164062 10.578125 64.21875 C 6.691406 63.269531 3.164062 61.644531 0 59.34375 C -3.164062 57.039062 -5.738281 54.203125 -7.71875 50.828125 C -9.707031 47.460938 -10.859375 43.640625 -11.171875 39.359375 C -11.566406 33.972656 -10.613281 29.078125 -8.3125 24.671875 C -6.019531 20.273438 -2.796875 16.6875 1.359375 13.90625 C 5.523438 11.132812 10.222656 9.550781 15.453125 9.15625 C 19.734375 8.757812 23.796875 9.394531 27.640625 11.0625 C 31.492188 12.726562 34.628906 15.203125 37.046875 18.484375 C 39.460938 21.773438 40.628906 25.679688 40.546875 30.203125 C 40.546875 30.835938 40.148438 31.390625 39.359375 31.859375 C 38.566406 32.335938 37.675781 32.695312 36.6875 32.9375 C 35.695312 33.175781 34.804688 33.316406 34.015625 33.359375 C 33.222656 33.398438 32.828125 33.257812 32.828125 32.9375 C 32.828125 29.925781 32.210938 27.09375 30.984375 24.4375 C 29.753906 21.78125 28.066406 19.476562 25.921875 17.53125 C 23.785156 15.59375 21.328125 14.207031 18.546875 13.375 C 15.773438 12.539062 12.84375 12.441406 9.75 13.078125 C 6.894531 13.628906 4.492188 15.132812 2.546875 17.59375 C 0.609375 20.050781 -0.875 22.550781 -1.90625 25.09375 C -3.09375 28.34375 -3.664062 31.75 -3.625 35.3125 C -3.582031 38.882812 -2.847656 42.296875 -1.421875 45.546875 C -0.234375 48.242188 1.523438 50.78125 3.859375 53.15625 C 6.203125 55.53125 8.859375 57.488281 11.828125 59.03125 C 14.804688 60.582031 17.898438 61.457031 21.109375 61.65625 C 24.316406 61.851562 27.390625 61.203125 30.328125 59.703125 C 33.492188 58.035156 36.128906 55.734375 38.234375 52.796875 C 40.335938 49.867188 41.960938 46.617188 43.109375 43.046875 C 44.253906 39.484375 44.945312 36.035156 45.1875 32.703125 C 46.0625 23.585938 43.960938 15.460938 38.890625 8.328125 C 38.410156 7.765625 37.8125 7.1875 37.09375 6.59375 C 36.382812 6 35.59375 5.425781 34.71875 4.875 C 34.09375 4.476562 33.265625 4.140625 32.234375 3.859375 C 31.203125 3.585938 29.734375 3.332031 27.828125 3.09375 C 25.921875 2.851562 23.222656 2.691406 19.734375 2.609375 C 17.515625 2.535156 15.789062 2.515625 14.5625 2.546875 C 13.332031 2.585938 12.34375 2.585938 11.59375 2.546875 C 10.84375 2.515625 9.910156 2.378906 8.796875 2.140625 C 6.734375 1.742188 4.867188 1.226562 3.203125 0.59375 C 1.546875 -0.0390625 0.28125 -1.109375 -0.59375 -2.609375 C -1.382812 -4.117188 -1.617188 -5.804688 -1.296875 -7.671875 C -0.984375 -9.535156 -0.3125 -10.984375 0.71875 -12.015625 C 1.269531 -12.566406 1.898438 -13.0625 2.609375 -13.5 C 3.328125 -13.9375 3.726562 -14.191406 3.8125 -14.265625 C 4.4375 -14.585938 4.988281 -14.847656 5.46875 -15.046875 C 5.945312 -15.242188 6.382812 -15.421875 6.78125 -15.578125 C 7.25 -15.734375 7.484375 -15.8125 7.484375 -15.8125 C 6.054688 -16.6875 4.910156 -17.679688 4.046875 -18.796875 C 3.085938 -20.054688 2.375 -21.320312 1.90625 -22.59375 C 1.269531 -23.863281 0.953125 -24.816406 0.953125 -25.453125 L 0.953125 -43.640625 C 1.191406 -44.992188 1.546875 -46.34375 2.015625 -47.6875 C 2.253906 -48.238281 2.550781 -48.789062 2.90625 -49.34375 C 3.269531 -49.90625 3.6875 -50.503906 4.15625 -51.140625 C 5.113281 -52.328125 6.425781 -53.394531 8.09375 -54.34375 C 8.71875 -54.738281 9.347656 -55.054688 9.984375 -55.296875 C 10.617188 -55.535156 11.332031 -55.773438 12.125 -56.015625 C 13.875 -56.410156 15.617188 -56.609375 17.359375 -56.609375 L 18.078125 -56.609375 C 20.773438 -56.609375 23.070312 -56.25 24.96875 -55.53125 C 26.875 -54.820312 28.460938 -53.953125 29.734375 -52.921875 L 30.796875 -52.09375 C 30.953125 -52.007812 31.085938 -51.925781 31.203125 -51.84375 C 31.328125 -51.769531 31.429688 -51.691406 31.515625 -51.609375 C 31.597656 -51.535156 31.71875 -51.457031 31.875 -51.375 C 32.03125 -51.289062 32.148438 -51.171875 32.234375 -51.015625 C 32.859375 -50.773438 33.726562 -50.535156 34.84375 -50.296875 C 35.320312 -50.140625 35.757812 -50.140625 36.15625 -50.296875 C 36.226562 -50.378906 36.347656 -50.582031 36.515625 -50.90625 C 36.515625 -51.375 36.351562 -51.769531 36.03125 -52.09375 C 35.476562 -52.726562 35.125 -53.242188 34.96875 -53.640625 C 34.570312 -54.265625 34.609375 -55.210938 35.078125 -56.484375 C 35.554688 -57.441406 36.3125 -58.117188 37.34375 -58.515625 C 38.289062 -58.910156 39.28125 -59.023438 40.3125 -58.859375 C 41.5 -58.703125 42.453125 -58.425781 43.171875 -58.03125 C 43.566406 -57.875 43.921875 -57.675781 44.234375 -57.4375 C 44.554688 -57.195312 44.796875 -57 44.953125 -56.84375 C 45.742188 -55.8125 46.140625 -54.703125 46.140625 -53.515625 C 46.140625 -52.328125 44.988281 -51.019531 42.6875 -49.59375 C 40.550781 -48.320312 38.410156 -47.726562 36.265625 -47.8125 C 35.078125 -47.8125 34.085938 -48.007812 33.296875 -48.40625 C 33.378906 -48.320312 33.457031 -48.179688 33.53125 -47.984375 C 33.613281 -47.785156 33.695312 -47.609375 33.78125 -47.453125 C 34.25 -46.421875 34.484375 -45.429688 34.484375 -44.484375 L 34.484375 -26.28125 C 34.242188 -24.851562 33.890625 -23.546875 33.421875 -22.359375 C 33.179688 -21.804688 32.898438 -21.226562 32.578125 -20.625 C 32.265625 -20.03125 31.867188 -19.421875 31.390625 -18.796875 C 30.597656 -17.597656 29.332031 -16.523438 27.59375 -15.578125 C 27.03125 -15.265625 26.410156 -14.96875 25.734375 -14.6875 C 25.066406 -14.40625 24.335938 -14.1875 23.546875 -14.03125 C 22.035156 -13.550781 20.289062 -13.3125 18.3125 -13.3125 L 17.59375 -13.3125 C 15.0625 -13.3125 12.765625 -13.671875 10.703125 -14.390625 C 10.617188 -14.390625 10.519531 -14.367188 10.40625 -14.328125 C 10.289062 -14.285156 10.191406 -14.265625 10.109375 -14.265625 C 10.023438 -14.265625 9.941406 -14.265625 9.859375 -14.265625 C 9.785156 -14.265625 9.707031 -14.265625 9.625 -14.265625 C 8.601562 -14.023438 7.691406 -13.671875 6.890625 -13.203125 C 6.492188 -12.960938 6.132812 -12.703125 5.8125 -12.421875 C 5.5 -12.148438 5.226562 -11.894531 5 -11.65625 C 4.4375 -11.019531 4.117188 -10.382812 4.046875 -9.75 C 4.046875 -9.113281 4.320312 -8.5625 4.875 -8.09375 C 5.351562 -7.6875 6.066406 -7.285156 7.015625 -6.890625 C 7.410156 -6.816406 7.785156 -6.738281 8.140625 -6.65625 C 8.503906 -6.582031 8.84375 -6.503906 9.15625 -6.421875 C 9.875 -6.179688 10.664062 -6.140625 11.53125 -6.296875 C 13.519531 -6.460938 15.625 -6.546875 17.84375 -6.546875 C 20.0625 -6.546875 22.160156 -6.503906 24.140625 -6.421875 C 26.515625 -6.335938 28.910156 -6.054688 31.328125 -5.578125 C 33.753906 -5.109375 35.957031 -4.203125 37.9375 -2.859375 C 38.175781 -2.859375 38.375 -2.773438 38.53125 -2.609375 Z M 11.0625 -48.515625 L 11.0625 -22.46875 C 11.0625 -21.675781 11.097656 -21.203125 11.171875 -21.046875 C 11.253906 -20.804688 11.351562 -20.546875 11.46875 -20.265625 C 11.59375 -19.992188 11.691406 -19.660156 11.765625 -19.265625 C 12.003906 -18.546875 12.484375 -17.832031 13.203125 -17.125 C 13.992188 -16.40625 14.785156 -15.929688 15.578125 -15.703125 C 15.972656 -15.617188 16.304688 -15.554688 16.578125 -15.515625 C 16.859375 -15.472656 17.117188 -15.453125 17.359375 -15.453125 C 17.679688 -15.453125 18.039062 -15.472656 18.4375 -15.515625 C 18.832031 -15.554688 19.304688 -15.617188 19.859375 -15.703125 C 20.890625 -15.773438 21.84375 -16.207031 22.71875 -17 C 23.582031 -17.875 24.175781 -18.984375 24.5 -20.328125 C 24.65625 -20.804688 24.734375 -21.125 24.734375 -21.28125 L 24.734375 -49 C 24.648438 -49.238281 24.53125 -49.515625 24.375 -49.828125 C 24.21875 -50.140625 24.0625 -50.457031 23.90625 -50.78125 C 23.664062 -51.488281 23.1875 -52.203125 22.46875 -52.921875 C 22.070312 -53.234375 21.695312 -53.488281 21.34375 -53.6875 C 20.988281 -53.882812 20.613281 -54.023438 20.21875 -54.109375 C 19.5 -54.347656 18.863281 -54.46875 18.3125 -54.46875 C 18 -54.46875 17.644531 -54.445312 17.25 -54.40625 C 16.851562 -54.363281 16.375 -54.304688 15.8125 -54.234375 C 14.863281 -54.148438 13.914062 -53.753906 12.96875 -53.046875 C 12.164062 -52.015625 11.566406 -50.898438 11.171875 -49.703125 C 11.097656 -49.390625 11.0625 -48.992188 11.0625 -48.515625 Z M 11.0625 -48.515625 "/></g></g></g><g fill="#292929" fill-opacity="1"><g transform="translate(143.269672, 103.034788)"><g><path d="M 4.15625 -72.0625 C 2.96875 -73.019531 2.375 -74.25 2.375 -75.75 C 2.375 -77.257812 2.96875 -78.488281 4.15625 -79.4375 C 5.425781 -80.46875 6.972656 -80.984375 8.796875 -80.984375 C 10.703125 -80.984375 12.207031 -80.46875 13.3125 -79.4375 C 14.582031 -78.40625 15.21875 -77.175781 15.21875 -75.75 C 15.21875 -74.320312 14.582031 -73.09375 13.3125 -72.0625 C 12.207031 -71.03125 10.703125 -70.515625 8.796875 -70.515625 C 6.972656 -70.515625 5.425781 -71.03125 4.15625 -72.0625 Z M 13.5625 -2.375 L 16.296875 -2.375 L 16.296875 0 L 0.71875 0 L 0.71875 -2.375 L 3.5625 -2.375 L 3.5625 -44.484375 C 3.5625 -44.640625 3.523438 -44.835938 3.453125 -45.078125 C 3.210938 -45.472656 2.894531 -45.75 2.5 -45.90625 L 0.125 -45.90625 L 0.125 -47.8125 L 0.234375 -47.921875 C 0.710938 -48.316406 1.425781 -48.796875 2.375 -49.359375 C 2.769531 -49.585938 3.222656 -49.859375 3.734375 -50.171875 C 4.253906 -50.492188 4.832031 -50.851562 5.46875 -51.25 C 6.101562 -51.644531 6.816406 -52.117188 7.609375 -52.671875 C 8.398438 -53.234375 9.3125 -53.832031 10.34375 -54.46875 C 11.457031 -55.175781 12.289062 -55.253906 12.84375 -54.703125 C 13.320312 -54.222656 13.5625 -53.585938 13.5625 -52.796875 Z M 13.5625 -2.375 "/></g></g></g><g fill="#292929" fill-opacity="1"><g transform="translate(161.699993, 103.034788)"><g><path d="M 38.40625 -5 C 38.644531 -4.125 39.082031 -3.425781 39.71875 -2.90625 C 40.351562 -2.394531 40.96875 -1.976562 41.5625 -1.65625 C 42.15625 -1.34375 42.414062 -1.03125 42.34375 -0.71875 C 42.257812 -0.476562 41.859375 -0.296875 41.140625 -0.171875 C 40.429688 -0.0546875 39.679688 0 38.890625 0 C 38.097656 0 37.582031 0 37.34375 0 C 36.3125 0 35.316406 -0.0976562 34.359375 -0.296875 C 33.410156 -0.492188 32.421875 -0.867188 31.390625 -1.421875 C 29.492188 -2.535156 28.546875 -4.203125 28.546875 -6.421875 L 28.546875 -47.21875 C 28.304688 -47.6875 28.066406 -48.28125 27.828125 -49 C 27.671875 -49.394531 27.492188 -49.769531 27.296875 -50.125 C 27.097656 -50.476562 26.800781 -50.816406 26.40625 -51.140625 C 26.320312 -51.210938 26.257812 -51.25 26.21875 -51.25 C 26.175781 -51.25 26.15625 -51.25 26.15625 -51.25 C 26.15625 -51.25 26 -51.332031 25.6875 -51.5 C 25.050781 -51.96875 24.378906 -52.320312 23.671875 -52.5625 C 23.347656 -52.644531 23.023438 -52.703125 22.703125 -52.734375 C 22.390625 -52.773438 22.078125 -52.796875 21.765625 -52.796875 C 21.523438 -52.796875 21.207031 -52.773438 20.8125 -52.734375 C 20.414062 -52.703125 19.941406 -52.644531 19.390625 -52.5625 C 18.359375 -52.320312 17.40625 -51.847656 16.53125 -51.140625 C 15.582031 -50.421875 14.988281 -49.347656 14.75 -47.921875 C 14.75 -47.847656 14.671875 -47.726562 14.515625 -47.5625 C 14.515625 -47.5625 14.515625 -47.539062 14.515625 -47.5 C 14.515625 -47.46875 14.515625 -47.410156 14.515625 -47.328125 L 14.515625 -2.5 L 17.59375 -2.5 L 17.59375 -0.125 L 2.015625 -0.125 L 2.015625 -2.5 L 4.28125 -2.5 L 4.28125 -44 C 4.28125 -44 4.28125 -44.054688 4.28125 -44.171875 C 4.28125 -44.296875 4.238281 -44.398438 4.15625 -44.484375 C 4 -44.878906 3.679688 -45.191406 3.203125 -45.421875 L 0.71875 -45.421875 L 0.71875 -47.328125 L 0.828125 -47.453125 C 1.148438 -47.609375 1.488281 -47.804688 1.84375 -48.046875 C 2.195312 -48.285156 2.613281 -48.5625 3.09375 -48.875 C 3.488281 -49.03125 3.960938 -49.285156 4.515625 -49.640625 C 5.066406 -50.003906 5.660156 -50.382812 6.296875 -50.78125 C 7.015625 -51.175781 7.789062 -51.648438 8.625 -52.203125 C 9.457031 -52.765625 10.304688 -53.359375 11.171875 -53.984375 C 12.285156 -54.785156 13.160156 -54.867188 13.796875 -54.234375 C 14.273438 -53.671875 14.515625 -53.035156 14.515625 -52.328125 L 14.515625 -52.203125 C 15.066406 -52.765625 15.816406 -53.320312 16.765625 -53.875 C 17.796875 -54.507812 19.1875 -54.828125 20.9375 -54.828125 C 21.332031 -54.828125 21.726562 -54.828125 22.125 -54.828125 C 22.519531 -54.828125 22.992188 -54.828125 23.546875 -54.828125 C 24.097656 -54.742188 24.570312 -54.703125 24.96875 -54.703125 C 25.363281 -54.703125 25.722656 -54.660156 26.046875 -54.578125 C 29.773438 -53.867188 32.429688 -52.644531 34.015625 -50.90625 C 34.878906 -50.03125 35.585938 -49.15625 36.140625 -48.28125 C 36.703125 -47.40625 37.140625 -46.570312 37.453125 -45.78125 C 38.085938 -44.675781 38.40625 -43.644531 38.40625 -42.6875 L 38.40625 -5.59375 C 38.40625 -5.507812 38.40625 -5.425781 38.40625 -5.34375 C 38.40625 -5.269531 38.40625 -5.15625 38.40625 -5 Z M 38.40625 -5 "/></g></g></g><g clip-path="url(#9db792fd74)"><g clip-path="url(#81dc312c84)"><path fill="#292929" d="M 203.023438 92.5 L 214.425781 92.5 L 214.425781 103.902344 L 203.023438 103.902344 Z M 203.023438 92.5 " fill-opacity="1" fill-rule="nonzero"/></g></g><g fill="#3d3b3a" fill-opacity="1"><g transform="translate(149.906856, 116.622818)"><g><path d="M 5.96875 -7.421875 C 5.644531 -7.597656 5.300781 -7.738281 4.9375 -7.84375 C 4.570312 -7.957031 4.226562 -8.015625 3.90625 -8.015625 C 3.40625 -8.015625 3.007812 -7.898438 2.71875 -7.671875 C 2.4375 -7.453125 2.296875 -7.15625 2.296875 -6.78125 C 2.296875 -6.40625 2.460938 -6.097656 2.796875 -5.859375 C 3.140625 -5.617188 3.625 -5.382812 4.25 -5.15625 C 4.71875 -4.988281 5.109375 -4.804688 5.421875 -4.609375 C 5.742188 -4.410156 6.007812 -4.140625 6.21875 -3.796875 C 6.4375 -3.453125 6.546875 -3.007812 6.546875 -2.46875 C 6.546875 -1.988281 6.425781 -1.550781 6.1875 -1.15625 C 5.945312 -0.769531 5.601562 -0.460938 5.15625 -0.234375 C 4.707031 -0.015625 4.1875 0.09375 3.59375 0.09375 C 3.03125 0.09375 2.488281 0.00390625 1.96875 -0.171875 C 1.457031 -0.347656 1.003906 -0.570312 0.609375 -0.84375 L 1.15625 -1.8125 C 1.457031 -1.582031 1.820312 -1.382812 2.25 -1.21875 C 2.6875 -1.050781 3.09375 -0.96875 3.46875 -0.96875 C 3.957031 -0.96875 4.378906 -1.09375 4.734375 -1.34375 C 5.097656 -1.59375 5.28125 -1.96875 5.28125 -2.46875 C 5.28125 -2.882812 5.128906 -3.210938 4.828125 -3.453125 C 4.523438 -3.703125 4.097656 -3.9375 3.546875 -4.15625 C 3.035156 -4.34375 2.613281 -4.523438 2.28125 -4.703125 C 1.945312 -4.890625 1.65625 -5.144531 1.40625 -5.46875 C 1.164062 -5.789062 1.046875 -6.191406 1.046875 -6.671875 C 1.046875 -7.378906 1.289062 -7.953125 1.78125 -8.390625 C 2.28125 -8.828125 2.925781 -9.0625 3.71875 -9.09375 C 4.695312 -9.09375 5.601562 -8.847656 6.4375 -8.359375 Z M 5.96875 -7.421875 "/></g></g></g><g fill="#3d3b3a" fill-opacity="1"><g transform="translate(160.189136, 116.622818)"><g><path d="M 8.296875 -9.03125 L 4.90625 -3.015625 L 4.90625 0 L 3.703125 0 L 3.703125 -3.015625 L 0.34375 -9.03125 L 1.84375 -9.03125 L 4.34375 -4.390625 L 6.8125 -9.03125 Z M 8.296875 -9.03125 "/></g></g></g><g fill="#3d3b3a" fill-opacity="1"><g transform="translate(171.845552, 116.622818)"><g><path d="M 5.96875 -7.421875 C 5.644531 -7.597656 5.300781 -7.738281 4.9375 -7.84375 C 4.570312 -7.957031 4.226562 -8.015625 3.90625 -8.015625 C 3.40625 -8.015625 3.007812 -7.898438 2.71875 -7.671875 C 2.4375 -7.453125 2.296875 -7.15625 2.296875 -6.78125 C 2.296875 -6.40625 2.460938 -6.097656 2.796875 -5.859375 C 3.140625 -5.617188 3.625 -5.382812 4.25 -5.15625 C 4.71875 -4.988281 5.109375 -4.804688 5.421875 -4.609375 C 5.742188 -4.410156 6.007812 -4.140625 6.21875 -3.796875 C 6.4375 -3.453125 6.546875 -3.007812 6.546875 -2.46875 C 6.546875 -1.988281 6.425781 -1.550781 6.1875 -1.15625 C 5.945312 -0.769531 5.601562 -0.460938 5.15625 -0.234375 C 4.707031 -0.015625 4.1875 0.09375 3.59375 0.09375 C 3.03125 0.09375 2.488281 0.00390625 1.96875 -0.171875 C 1.457031 -0.347656 1.003906 -0.570312 0.609375 -0.84375 L 1.15625 -1.8125 C 1.457031 -1.582031 1.820312 -1.382812 2.25 -1.21875 C 2.6875 -1.050781 3.09375 -0.96875 3.46875 -0.96875 C 3.957031 -0.96875 4.378906 -1.09375 4.734375 -1.34375 C 5.097656 -1.59375 5.28125 -1.96875 5.28125 -2.46875 C 5.28125 -2.882812 5.128906 -3.210938 4.828125 -3.453125 C 4.523438 -3.703125 4.097656 -3.9375 3.546875 -4.15625 C 3.035156 -4.34375 2.613281 -4.523438 2.28125 -4.703125 C 1.945312 -4.890625 1.65625 -5.144531 1.40625 -5.46875 C 1.164062 -5.789062 1.046875 -6.191406 1.046875 -6.671875 C 1.046875 -7.378906 1.289062 -7.953125 1.78125 -8.390625 C 2.28125 -8.828125 2.925781 -9.0625 3.71875 -9.09375 C 4.695312 -9.09375 5.601562 -8.847656 6.4375 -8.359375 Z M 5.96875 -7.421875 "/></g></g></g><g fill="#3d3b3a" fill-opacity="1"><g transform="translate(182.127832, 116.622818)"><g><path d="M 6.640625 -9.03125 L 6.640625 -7.875 L 4.21875 -7.875 L 4.21875 0 L 3 0 L 3 -7.875 L 0.640625 -7.875 L 0.640625 -9.03125 Z M 6.640625 -9.03125 "/></g></g></g><g fill="#3d3b3a" fill-opacity="1"><g transform="translate(192.410112, 116.622818)"><g><path d="M 7.171875 -9.03125 L 7.171875 -7.875 L 2.515625 -7.875 L 2.515625 -5.125 L 6.671875 -5.125 L 6.671875 -3.96875 L 2.515625 -3.96875 L 2.515625 -1.171875 L 7.34375 -1.171875 L 7.34375 0 L 1.296875 0 L 1.296875 -9.03125 Z M 7.171875 -9.03125 "/></g></g></g><g fill="#3d3b3a" fill-opacity="1"><g transform="translate(203.579335, 116.622818)"><g><path d="M 10.28125 -9.328125 L 10.28125 0 L 9.09375 0 L 9.09375 -5.84375 L 5.765625 -1.140625 L 5.734375 -1.140625 L 2.46875 -5.6875 L 2.46875 0 L 1.296875 0 L 1.296875 -9.328125 L 1.3125 -9.328125 L 5.765625 -3.03125 Z M 10.28125 -9.328125 "/></g></g></g></svg>